<?xml version="1.0" standalone="no"?>
<!DOCTYPE svg PUBLIC "-//W3C//DTD SVG 20010904//EN"
 "http://www.w3.org/TR/2001/REC-SVG-20010904/DTD/svg10.dtd">
<svg version="1.0" xmlns="http://www.w3.org/2000/svg"
 width="260.000000pt" height="260.000000pt" viewBox="0 0 260.000000 260.000000"
 preserveAspectRatio="xMidYMid meet">
<metadata>
Created by potrace 1.11, written by Peter Selinger 2001-2013
</metadata>
<g transform="translate(0.000000,260.000000) scale(0.100000,-0.100000)"
fill="#000000" stroke="none">
<path d="M330 1300 l0 -860 235 0 235 0 0 511 c0 378 3 510 11 507 7 -2 87
-194 178 -426 l166 -422 150 0 150 0 166 422 c91 232 171 424 178 426 8 3 11
-129 11 -507 l0 -511 235 0 235 0 0 860 0 860 -301 -2 -300 -3 -181 -467
c-100 -258 -186 -468 -193 -468 -7 0 -93 210 -193 468 l-181 467 -300 3 -301
2 0 -860z"/>
</g>
</svg>
